<?xml version="1.0" standalone="no"?>
<!DOCTYPE svg PUBLIC "-//W3C//DTD SVG 20010904//EN"
 "http://www.w3.org/TR/2001/REC-SVG-20010904/DTD/svg10.dtd">
<svg version="1.0" xmlns="http://www.w3.org/2000/svg"
 width="260.000000pt" height="260.000000pt" viewBox="0 0 260.000000 260.000000"
 preserveAspectRatio="xMidYMid meet">
<metadata>
Created by potrace 1.11, written by Peter Selinger 2001-2013
</metadata>
<g transform="translate(0.000000,260.000000) scale(0.100000,-0.100000)"
fill="#000000" stroke="none">
<path d="M1048 2096 l-157 -152 131 -131 c114 -114 130 -134 119 -147 -12 -14
-66 -16 -452 -16 l-439 0 0 -700 0 -700 700 0 700 0 0 429 c0 304 3 432 11
437 7 4 65 -47 138 -120 69 -69 131 -126 136 -126 6 0 79 69 163 153 l152 152
0 538 0 537 -522 0 -523 -1 -157 -153z m1002 -533 l0 -488 -180 180 -180 180
-288 -288 -287 -287 -123 122 -122 123 287 287 288 288 -185 185 -185 185 488
0 487 0 0 -487z m-1293 -281 l-167 -167 268 -268 267 -267 155 155 c85 85 158
155 162 155 5 0 8 -99 8 -220 l0 -220 -500 0 -500 0 0 500 0 500 237 0 238 0
-168 -168z"/>
</g>
</svg>
